<svg width="900" height="149" viewBox="0 0 900 149" fill="none" xmlns="http://www.w3.org/2000/svg">
<path d="M47.475 18.9754L0 66.4814V139.678H180.315V66.4814L132.75 18.9754H103.41V6.58054H80.685V18.9754H47.475Z" fill="black"/>
<path d="M96.7949 78.8311H167.94V127.329H96.7949V78.8311Z" fill="white"/>
<path d="M47.475 34.1647L15.165 66.4814H79.695L47.475 34.1647Z" fill="#FBD600"/>
<path d="M12.3301 78.8311H83.5201V127.329H12.3301V78.8311Z" fill="#DD0021"/>
<path d="M59.8052 31.3251L94.9052 66.4814H165.105L130.005 31.3251H59.8052Z" fill="#0072CE"/>
<path d="M702.315 117.458C704.07 117.458 706.5 118.089 707.895 119.982L708.21 120.388L712.62 117.097L712.305 116.692C709.695 113.401 705.87 111.508 701.775 111.508C694.44 111.508 688.455 117.593 688.455 125.12C688.455 132.602 694.44 138.687 701.775 138.687C705.825 138.687 709.74 136.749 712.215 133.504L712.53 133.098L708.165 129.763L707.85 130.258C706.725 132.061 704.16 132.692 702.315 132.692C698.67 132.692 695.79 129.357 695.79 125.12C695.79 120.793 698.67 117.458 702.315 117.458Z" fill="#0072CE"/>
<path d="M732.33 111.463C724.635 111.463 718.425 117.548 718.425 125.075C718.425 132.557 724.68 138.642 732.33 138.642C739.98 138.642 746.235 132.557 746.235 125.075C746.235 117.593 739.98 111.463 732.33 111.463ZM732.33 132.647C728.685 132.647 725.715 129.222 725.715 125.075C725.715 120.883 728.685 117.458 732.33 117.458C735.975 117.458 738.945 120.883 738.945 125.075C738.99 129.222 735.975 132.647 732.33 132.647Z" fill="#0072CE"/>
<path d="M792.135 111.463C784.44 111.463 778.23 117.548 778.23 125.075C778.23 132.557 784.485 138.642 792.135 138.642C799.785 138.642 806.04 132.557 806.04 125.075C806.04 117.593 799.785 111.463 792.135 111.463ZM792.135 132.647C788.49 132.647 785.52 129.222 785.52 125.075C785.52 120.883 788.49 117.458 792.135 117.458C795.78 117.458 798.795 120.883 798.795 125.075C798.795 129.222 795.78 132.647 792.135 132.647Z" fill="#0072CE"/>
<path d="M826.605 111.869C826.47 111.914 827.01 111.779 827.01 111.779C827.91 111.553 828.63 111.508 829.35 111.508C829.8 111.508 830.16 111.508 830.52 111.553C836.775 112.004 841.095 117.007 841.095 123.993V138.191H834.12V124.174C834.12 119.666 831.33 117.683 828.585 117.683C825.705 117.683 822.51 120.027 822.51 123.092V138.191H815.535V112.094L816.435 112.725C817.56 113.401 818.865 113.762 820.26 113.762C821.385 113.762 822.69 113.492 823.68 113.041C823.725 112.951 825.795 112.094 826.605 111.869Z" fill="#0072CE"/>
<path d="M868.545 137.019C869.49 136.614 870.48 136.388 871.56 136.388C873.405 136.388 875.115 137.019 876.42 138.146V112.004L875.475 112.635C874.35 113.311 873.045 113.672 871.65 113.672C870.525 113.672 869.22 113.401 868.23 112.951C868.23 112.951 868.05 112.861 867.78 112.725C867.555 112.635 866.43 112.185 866.115 112.004C866.07 112.004 865.575 111.869 865.395 111.824C865.395 111.824 864.045 111.554 863.325 111.508C863.1 111.508 862.92 111.463 862.695 111.463H862.605C862.65 111.463 862.65 111.463 862.65 111.463C862.605 111.463 862.605 111.463 862.56 111.463C855.585 111.463 849.96 117.548 849.96 125.075C850.05 132.692 855.63 138.642 862.56 138.642C864.315 138.642 865.98 138.236 867.51 137.515L868.545 137.019ZM863.325 132.647C859.995 132.647 857.34 129.222 857.34 125.075C857.34 120.883 860.04 117.458 863.325 117.458C866.7 117.458 869.4 120.883 869.4 125.075C869.4 129.222 866.7 132.647 863.325 132.647Z" fill="#0072CE"/>
<path d="M762.435 123.047C762.435 120.883 764.01 119.035 766.035 118.72C766.26 118.675 769.275 118.134 771.12 120.478V111.644C771.12 111.644 770.04 111.463 768.915 111.463C767.25 111.463 765.585 111.869 764.055 112.635L763.425 112.951C762.48 113.401 761.4 113.672 760.275 113.672C758.88 113.672 757.575 113.311 756.45 112.635L755.55 112.004V138.101H762.525V123.047H762.435Z" fill="#0072CE"/>
<path d="M273.33 89.1527H254.43V64.5883H225.9V89.1527H206.91V26.1418H225.9V49.3089H254.43V26.1418H273.33V89.1527Z" fill="#0072CE"/>
<path d="M332.28 57.6472C332.28 55.3035 331.92 53.14 331.245 51.1569C330.525 49.2188 329.49 47.506 328.095 46.0637C326.7 44.6214 324.99 43.4946 322.92 42.6833C320.895 41.872 318.555 41.4664 315.9 41.4664C310.815 41.4664 306.81 42.9537 303.885 45.9285C301.005 48.9033 299.52 52.7795 299.52 57.6022C299.52 62.4249 301.005 66.3011 303.93 69.3209C306.855 72.2957 310.86 73.7831 315.9 73.7831C319.365 73.7831 322.335 73.107 324.765 71.7097C327.195 70.3125 329.085 68.4195 330.345 65.9856C331.605 63.5968 332.28 60.8023 332.28 57.6472ZM351.585 57.6472C351.585 63.5066 350.235 68.9153 347.535 73.8732C344.835 78.8311 340.785 82.7524 335.43 85.637C330.075 88.5216 323.55 90.009 315.9 90.009C308.115 90.009 301.545 88.4766 296.145 85.4567C290.79 82.4369 286.785 78.4255 284.175 73.5126C281.565 68.5547 280.26 63.2813 280.26 57.6472C280.26 51.9682 281.565 46.6947 284.175 41.7819C286.785 36.869 290.79 32.8576 296.145 29.8828C301.545 26.863 308.16 25.3305 315.945 25.3305C321.75 25.3305 326.925 26.1869 331.47 27.9447C336.015 29.7025 339.75 32.0012 342.72 34.976C345.645 37.9057 347.895 41.3762 349.38 45.2975C350.82 49.1737 351.585 53.3203 351.585 57.6472Z" fill="#0072CE"/>
<path d="M431.865 89.1527H412.875V52.6893L395.775 73.8281H394.29L377.145 52.6893V89.1527H358.695V26.1869H375.93L395.235 49.8047L414.63 26.1869H431.865V89.1527Z" fill="#0072CE"/>
<path d="M486.135 89.1527H438.705V26.1869H485.37V38.8522H457.695V50.3456H484.11V63.0559H457.695V76.4874H486.135V89.1527Z" fill="#0072CE"/>
<path d="M553.41 84.4652C550.8 85.8173 548.145 86.9441 545.4 87.7554C542.655 88.5667 539.955 89.1527 537.165 89.5132C534.375 89.8738 531.54 90.0541 528.57 90.0541C523.08 90.0541 518.175 89.2879 513.855 87.8005C509.535 86.268 505.755 84.0595 502.56 81.0847C499.365 78.11 496.98 74.6394 495.36 70.7182C493.785 66.7518 492.975 62.4249 492.975 57.6923C492.975 52.2837 493.92 47.506 495.81 43.4495C497.655 39.393 500.31 35.9676 503.685 33.3083C507.06 30.604 510.885 28.6208 515.205 27.3588C519.525 26.0517 524.07 25.4207 528.84 25.4207C535.995 25.4207 544.05 26.9982 553.095 30.1983V46.9201C549.99 44.982 546.885 43.3594 543.87 42.0974C540.81 40.7903 537.255 40.1593 533.115 40.1593C529.47 40.1593 526.05 40.8804 522.855 42.3227C519.66 43.765 517.095 45.8384 515.16 48.5427C513.225 51.247 512.235 54.4021 512.235 58.0078C512.235 61.1629 513.09 64.0926 514.755 66.7518C516.465 69.4111 518.805 71.5295 521.82 73.0619C524.835 74.6394 528.21 75.4057 532.035 75.4057C535.095 75.4057 537.975 75.0451 540.675 74.2789C543.375 73.5126 545.67 72.7013 547.56 71.7999C549.405 70.8984 551.34 69.8167 553.32 68.5547V84.4652H553.41Z" fill="#0072CE"/>
<path d="M607.68 89.1527H560.295V26.1869H606.915V38.8522H579.24V50.3456H605.655V63.0559H579.24V76.4874H607.68V89.1527Z" fill="#0072CE"/>
<path d="M683.235 89.1527H666.36L633.735 54.0865V89.1527H614.925V26.1869H631.8L664.335 61.0727V26.1869H683.235V89.1527Z" fill="#0072CE"/>
<path d="M755.145 41.5114H732.06V89.1527H713.16V41.5114H690.12V26.1869H755.145V41.5114Z" fill="#0072CE"/>
<path d="M809.415 89.1527H761.985V26.1869H808.65V38.8522H780.975V50.3456H807.345V63.0559H780.975V76.4874H809.415V89.1527Z" fill="#0072CE"/>
<path d="M850.725 46.1088C850.725 43.1791 849.735 41.1508 847.845 40.024C845.955 38.8972 842.85 38.3113 838.575 38.3113H834.57V53.5006H838.62C843.255 53.5006 846.405 53.0048 848.16 51.9682C849.87 50.9315 850.725 48.9934 850.725 46.1088ZM876.51 89.1527H856.17L851.22 77.9748C849.375 73.8732 847.755 70.8984 846.315 69.0054C844.875 67.1124 843.435 65.8954 842.085 65.3546C840.69 64.8137 838.935 64.5433 836.73 64.5433H834.615V89.1076H815.625V26.1869H847.89C853.11 26.1869 857.385 27.2686 860.67 29.387C864 31.5054 866.385 34.0745 867.87 37.0944C869.355 40.1142 870.075 42.9988 870.075 45.7482C870.075 48.9483 869.445 51.6076 868.23 53.8161C867.015 56.0246 865.71 57.6022 864.36 58.5938C863.01 59.5853 861.48 60.5319 859.77 61.4333C861.795 62.6502 863.46 64.0475 864.765 65.625C866.07 67.2476 867.87 70.5379 870.165 75.4507L876.51 89.1527Z" fill="#0072CE"/>
<path d="M501.705 130.439C501.705 132.106 501.3 133.594 500.4 134.811C499.545 136.028 498.33 136.974 496.8 137.65C495.27 138.326 493.515 138.642 491.49 138.642C490.905 138.642 490.23 138.597 489.42 138.552C488.61 138.462 487.53 138.281 486.18 137.966C484.83 137.65 483.435 137.154 481.995 136.523V129.898C483.345 130.754 484.695 131.43 486.045 132.016C487.35 132.557 488.745 132.873 490.23 132.873C491.625 132.873 492.525 132.647 492.93 132.197C493.335 131.746 493.56 131.295 493.56 130.889C493.56 130.168 493.2 129.537 492.525 129.041C491.85 128.546 490.815 128.05 489.465 127.509C487.98 126.878 486.675 126.202 485.595 125.481C484.47 124.76 483.57 123.813 482.85 122.731C482.13 121.65 481.815 120.343 481.815 118.81C481.815 117.368 482.175 116.061 482.85 114.889C483.57 113.717 484.65 112.77 486.135 112.094C487.62 111.373 489.375 111.058 491.49 111.058C492.975 111.058 494.37 111.193 495.675 111.508C496.935 111.779 498.015 112.139 498.825 112.5C499.635 112.861 500.22 113.131 500.535 113.356V119.666C499.455 118.9 498.195 118.179 496.845 117.548C495.495 116.917 494.055 116.602 492.48 116.602C491.49 116.602 490.725 116.782 490.275 117.188C489.825 117.548 489.6 118.044 489.6 118.63C489.6 119.171 489.825 119.621 490.275 120.027C490.725 120.433 491.535 120.883 492.705 121.424C494.775 122.416 496.44 123.272 497.655 124.038C498.915 124.805 499.86 125.706 500.58 126.743C501.345 127.689 501.705 128.951 501.705 130.439Z" fill="#DD0021"/>
<path d="M526.59 125.03C526.59 124.038 526.455 123.137 526.14 122.326C525.87 121.514 525.42 120.793 524.835 120.162C524.25 119.576 523.53 119.081 522.675 118.765C521.82 118.45 520.83 118.269 519.705 118.269C517.545 118.269 515.88 118.9 514.665 120.162C513.45 121.424 512.82 123.047 512.82 125.075C512.82 127.103 513.45 128.726 514.665 129.988C515.88 131.25 517.545 131.881 519.705 131.881C521.145 131.881 522.405 131.611 523.44 131.025C524.475 130.439 525.24 129.627 525.78 128.591C526.365 127.554 526.59 126.382 526.59 125.03ZM534.735 125.03C534.735 127.509 534.15 129.763 533.025 131.836C531.9 133.909 530.19 135.577 527.94 136.794C525.69 138.011 522.945 138.642 519.705 138.642C516.42 138.642 513.675 138.011 511.425 136.749C509.175 135.487 507.465 133.819 506.385 131.746C505.26 129.672 504.72 127.419 504.72 125.075C504.72 122.686 505.26 120.478 506.385 118.404C507.465 116.331 509.175 114.663 511.425 113.401C513.72 112.139 516.465 111.508 519.75 111.508C522.18 111.508 524.385 111.869 526.275 112.59C528.21 113.311 529.74 114.303 531 115.52C532.215 116.782 533.16 118.224 533.79 119.847C534.42 121.469 534.735 123.227 534.735 125.03Z" fill="#DD0021"/>
<path d="M557.325 125.21C557.325 123.047 556.92 121.379 556.11 120.162C555.3 118.945 554.31 118.134 553.14 117.728C551.97 117.323 550.8 117.097 549.63 117.097H546.255V132.782H549.63C551.7 132.782 553.5 132.287 555.03 131.295C556.605 130.349 557.325 128.275 557.325 125.21ZM565.47 125.526C565.47 128.23 564.975 130.394 563.985 132.061C562.995 133.684 561.825 135.036 560.52 136.073C558.63 137.56 555.975 138.326 552.555 138.326H552.15H538.29V111.824H549.27C550.935 111.824 552.33 111.914 553.5 112.094C554.67 112.275 555.75 112.5 556.695 112.815C557.64 113.131 558.45 113.492 559.08 113.852C559.755 114.258 560.34 114.663 560.88 115.114C561.78 115.835 562.59 116.737 563.265 117.728C563.94 118.72 564.48 119.892 564.885 121.244C565.245 122.551 565.47 123.993 565.47 125.526Z" fill="#DD0021"/>
<path d="M576.675 111.824H568.71V138.326H576.675V111.824Z" fill="#DD0021"/>
<path d="M611.235 138.281H603.27V122.957L596.07 131.836H595.44L588.24 122.957V138.281H580.5V111.824H587.745L595.845 121.74L604.035 111.824H611.235V138.281Z" fill="#DD0021"/>
<path d="M633.015 128.32L629.145 118.63L625.23 128.32H633.015ZM645.165 138.281H637.02L634.86 132.918H623.385L621.18 138.281H613.035L624.735 111.779H633.555L645.165 138.281Z" fill="#DD0021"/>
<path d="M669.51 136.298C668.43 136.884 667.305 137.335 666.18 137.695C665.01 138.056 663.885 138.281 662.715 138.416C661.545 138.552 660.33 138.642 659.115 138.642C656.82 138.642 654.75 138.326 652.905 137.695C651.105 137.064 649.485 136.118 648.135 134.856C646.785 133.594 645.795 132.151 645.12 130.484C644.49 128.816 644.13 127.013 644.13 125.03C644.13 122.731 644.535 120.748 645.3 119.035C646.11 117.323 647.19 115.88 648.585 114.754C649.98 113.627 651.6 112.77 653.445 112.23C655.245 111.689 657.18 111.418 659.205 111.418C662.22 111.418 665.595 112.094 669.42 113.401V120.433C668.115 119.621 666.81 118.945 665.55 118.404C664.29 117.864 662.76 117.593 661.05 117.593C659.52 117.593 658.08 117.909 656.73 118.495C655.425 119.081 654.345 119.982 653.49 121.109C652.68 122.236 652.275 123.588 652.275 125.075C652.275 126.427 652.635 127.644 653.355 128.771C654.075 129.898 655.065 130.754 656.325 131.43C657.585 132.061 659.025 132.422 660.6 132.422C661.905 132.422 663.12 132.287 664.245 131.971C665.37 131.656 666.36 131.295 667.125 130.934C667.89 130.574 668.7 130.078 669.555 129.582V136.298H669.51Z" fill="#DD0021"/>
<path fill-rule="evenodd" clip-rule="evenodd" d="M891.63 27.0433C893.07 27.0433 894.465 27.4038 895.77 28.125C897.075 28.8462 898.155 29.8828 898.875 31.1899C899.64 32.5421 900 33.9393 900 35.4267C900 36.9141 899.64 38.2662 898.875 39.6184C898.155 40.9255 897.12 41.9621 895.77 42.7284C894.465 43.4495 893.07 43.8101 891.585 43.8101C890.145 43.8101 888.75 43.4495 887.4 42.7284C886.095 42.0072 885.06 40.9255 884.295 39.6184C883.575 38.3113 883.17 36.9141 883.17 35.4267C883.17 33.9393 883.53 32.5421 884.295 31.1899C885.06 29.8377 886.095 28.8462 887.4 28.125C888.795 27.4038 890.19 27.0433 891.63 27.0433ZM891.63 28.7109C890.505 28.7109 889.38 28.9814 888.3 29.5673C887.265 30.1532 886.41 30.9645 885.78 32.0463C885.195 33.128 884.88 34.2548 884.88 35.4267C884.88 36.5986 885.195 37.7254 885.78 38.8071C886.365 39.8888 887.22 40.7001 888.255 41.2861C889.335 41.872 890.415 42.1875 891.585 42.1875C892.755 42.1875 893.88 41.872 894.915 41.2861C895.995 40.7001 896.805 39.8438 897.435 38.8071C898.02 37.7254 898.335 36.6436 898.335 35.4267C898.335 34.2548 898.02 33.128 897.435 32.0463C896.85 30.9645 895.995 30.1532 894.915 29.5673C893.88 28.9814 892.8 28.7109 891.63 28.7109ZM887.85 39.9339V31.0547H889.65C891.315 31.0547 892.26 31.0547 892.485 31.0547C893.07 31.0998 893.52 31.235 893.88 31.4153C894.195 31.5956 894.51 31.866 894.69 32.2716C894.915 32.6322 895.05 33.0829 895.05 33.5337C895.05 34.1647 894.825 34.7055 894.42 35.2013C894.015 35.652 893.43 35.9225 892.665 36.0577C892.935 36.1478 893.16 36.2831 893.295 36.4183C893.43 36.5535 893.61 36.7788 893.88 37.0944C893.925 37.1845 894.195 37.5451 894.555 38.1761L895.59 39.979H893.385L892.62 38.5367C892.125 37.5901 891.675 36.9591 891.36 36.7338C891.045 36.4633 890.595 36.3281 890.1 36.3281H889.65V39.979H887.85V39.9339ZM889.65 34.8858H890.37C891.405 34.8858 892.035 34.8407 892.305 34.7506C892.575 34.6605 892.755 34.5252 892.935 34.345C893.07 34.1196 893.16 33.8942 893.16 33.6689C893.16 33.3984 893.115 33.2182 892.935 32.9928C892.8 32.8125 892.62 32.6773 892.305 32.5871C892.035 32.497 891.405 32.4519 890.37 32.4519H889.65V34.8858Z" fill="#0072CE"/>
</svg>
